<?xml version='1.0' encoding='utf-8'?>
<svg xmlns="http://www.w3.org/2000/svg" viewBox="0 0 1024 1024"><path d="M566.7 165c-19.5 4.1-36.9 13.2-50.4 26.2-12.1 11.8-22.5 29.6-25.9 44.6l-1.9 7.9c-.1.2-3.7-1.7-8-4.2-9.3-5.3-21.2-9.7-32.7-12.2-7.7-1.7-15.7-1.8-104.3-1.8-95.4 0-96.1 0-104.1 2.2-12.1 3.2-22.7 7.9-32.5 14.5-25.9 17.3-43.3 45.6-46.8 76.3-.5 4.4-.8 34.3-.7 66.5.2 55.5.3 58.9 2.3 67.1 8.1 33 29.5 59.3 60.1 73.8l7.2 3.5.1 49.3.4 50.3c.1.5.3 47.9.4 105.3l.1 104.3 2.7 4.2c1.7 2.6 4.4 5 6.9 6.2 3.9 2 6.6 2 114.4 2h110.3l8.8 3.5c18 7.1 22.4 7.9 43.4 8 21.8 0 25.8-.7 42.2-7.1l11.1-4.4h113.1l116.4-1.4c4.3-1.7 9.5-7.8 10.2-11.8.3-1.8.4-60.3.3-130l-.3-126.6-3-4.3c-1.7-2.4-5.3-5.7-7.9-7.4-4.6-2.8-5.7-3-16.3-3.3l-11.3-.4V554v-11.8l6-.4c6.7-.5 10.1-2.4 13.8-7.8 2.2-3.3 2.2-3.7 2.2-35.7V466l2.8-1.2c26.4-10.7 46.2-28 57.4-50.3 3.4-6.6 8.4-20.9 9.3-26.5.4-2.5 1-5.4 1.3-6.5s.7-29.2.9-62.5c.4-50.7.2-62.2-1.1-70.8-4.8-32.1-22-57.1-50-72.7-8.6-4.7-18.3-8.2-29.7-10.5-9.3-1.9-13.7-2-109.1-1.9-92.9 0-99.9.2-108.1 1.9zM782 192.1c27 7 47.3 27.4 54 54.3 1.9 7.5 2 11.3 2 67.5 0 66.1-.3 68.9-6.8 83.4-9.6 21.1-30.2 38.5-50.5 42.8-6.8 1.5-10 3.2-12.3 6.6-1.7 2.5-1.9 5.4-2.4 30.9l-.5 28.1-20.5-19.4-31.8-30.1c-6.2-5.9-12.5-11.2-14-11.9-2-.9-17.4-1.2-59.2-1.3-62.8 0-64.5-.2-77.9-6.5-9.8-4.7-18.9-11.3-24.4-17.8l-4.6-5.3-.4-50.9c-.4-49.2-.4-51.3-2.6-59-2.4-8.6-8.2-21.7-13.1-29.7-3.6-5.8-3.9-12.3-1.4-24.6 5.8-28.2 26.5-49.5 55.4-57.1 7.2-1.9 11.3-2 105.5-2 93.9 0 98.3.1 105.5 2zm-343.4 61c24.7 3.4 47.6 19.8 58.8 42.1 9.1 18.3 9 16.8 9 84.8.1 64.3.2 63.4-5.5 77.3-4.4 10.8-8.8 17.5-17.4 26.3-9.1 9.3-18.8 15.3-31.2 19.6l-8.3 2.9h-57.7c-52.7-.1-58.1.1-61.6 1.7-2.2 1-15.2 12.8-32 29.3l-31.9 30.8-3.8 3.3v-26.5c0-16.3-.4-27.7-1.1-29.4-1.9-5.2-6.9-9.2-13.9-11.3-21.3-6.4-41.6-25.6-49.9-47-5.9-15.2-6.1-17.7-6.1-77.2 0-61.1.4-65.1 7.4-80.2 11-24 30.6-39.6 56.9-45.6 7.6-1.7 14.4-1.8 94.4-1.9l93.9 1zm107.9 207.1c7.1 3.6 16.7 6.6 26.5 8.3 6.8 1.2 19.1 1.5 62 1.5h53.5l19.9 18.8 19.9 18.7-75.9.6c-82.6.6-79.1.4-98.9 6.6-12.7 4-29 12.9-36.6 20l-2.6 2.4-6.6-5c-7.1-5.3-17.1-11.5-20.6-12.6-1.1-.3-2.1-.9-2-1.3 0-.4 3.7-3.6 8.1-7.2 17.1-13.6 30-34.1 35.8-56.8l1.1-4.2 5.7 3.9c3.1 2.1 8 4.9 10.7 6.3zm-88 76.6c14 3.9 28.8 11.8 38.3 20.5l4.2 4v118.8V799l-6.8-3.4c-15.7-7.9-30.9-12.5-47.7-14.5-5.7-.7-37.2-1.1-85.2-1.1H285v-99.1-99.2l24.3-23.8 24.2-23.9 58.5.3c56.9.3 58.7.4 66.5 2.5zM745 657v123h-76.5l-86.3 1c-18.6 2-33.2 6.1-45.7 12.9l-7.2 3.9-.8-118-.7-118 2.8-2.9c4.1-4.3 16.5-12.6 23.7-15.9 7.9-3.5 19.2-6.7 28.2-7.9 3.9-.4 42-.9 84.8-1l77.7-.1v123zm38 52v116H671.2c-109.7 0-111.8 0-115.2 2-14.7 8.4-19.2 9.4-40 9.4-18 0-23.8-1.2-35.9-7.4l-7.8-4H364.2 256V720.6l1-105.1c.6-.4 1.1 31.6 1.2 92l.3 92.7 3.7 3.4 3.8 3.4 87.2.1 91.8.5c14.5 1.3 36.5 9.4 46.8 17.1 6 4.5 9.4 5.3 22.6 5.3 13.7 0 15.6-.5 23.6-5.8 8.8-5.9 20.2-11 30.7-13.9l9.8-2.7 92.6-.5c90.8-.6 92.7-.6 94.9-2.6 5.2-4.7 5 .2 5-109.5V593h6 6v116zM622.6 245.2c-.7 1.3-3.3 8.8-5.6 16.8-3.7 12.4-9.7 30.4-24.1 72-1.7 4.7-5.3 16.3-8 25.9-2.8 9.5-5.9 19.6-7 22.3-3.2 8.1-3.6 7.8 11.6 7.8 16.1 0 14.5 1.4 20.5-17.8l4.2-13.2 27 .2 27 .3 4.4 13.9c2.4 7.6 4.9 14.5 5.5 15.2.9 1.1 4.4 1.4 14.5 1.4 7.4 0 13.4-.3 13.4-.8 0-.4-1.8-6-4-12.5-2.2-6.6-4-12.5-4-13.2 0-2.2-7.9-26.1-19.2-58l-15-44.5c-5.8-19.6-3.7-18-23.3-18-16 0-16.5.1-17.9 2.2zm19.4 34.5c0 1.9 6.1 22.7 12.1 40.8l3.9 12.8c0 .4-7.9.7-17.5.7h-17.4l1.5-4.3c2.3-6.6 14.1-45.8 14.9-49.5.7-3.2 2.5-3.6 2.5-.5zm89.2 36.5l.3 73.3 12 .3c6.6.1 13 0 14.3-.3l2.2-.5v-71.1l-1-73c-1-1.7-2.2-1.9-14.5-1.9H731l.2 73.2zM330.3 283c-2.2.5-7.2 2.1-11 3.6-19.3 7.6-34.2 23.5-41.4 44.1-2.7 7.6-3.6 22.8-1.9 33 2.1 13.3 9.2 27.5 18.7 37.5l3.5 3.6-4.3 2.2c-15.8 8-32.3 22.9-41.4 37.4-8.7 14-13.8 30.9-10.3 34.4.8.8 4.6 1.2 10.4 1.2 8.4 0 9.5-.2 12.2-2.5 1.7-1.4 3.8-4.9 5-8.3 9.5-25.9 37.8-44.1 71.4-45.9 22-1.2 42.5 5.1 59.8 18.2 9.4 7.2 16.2 15.5 22.9 28 5 9.3 6.9 10.5 17.2 10.5 7.1 0 8.9-.3 10.2-1.8 2.2-2.4 2.1-4.6-.4-11.2-9.9-26.2-28.4-46.6-53.8-59.4l-5.4-2.8 4.5-4.6c9.8-10.2 16-22.4 18.4-36.4 6-34.8-13.4-66.4-48.3-79-6.5-2.3-28.5-3.4-36-1.8zm22.3 26.1c17.5 3.2 31.8 17.4 35.4 35.2 3.7 18.2-6.4 37.8-23.6 45.9-17.5 8.2-35.6 5.3-49.3-7.7-24.7-23.5-13.6-63.9 20-72.9 6.7-1.8 9.9-1.9 17.5-.5zM318.3 584c-8.6 5.2-8.2 18.8.7 23.2 3.2 1.7 8.9 1.8 73.5 1.8 78 0 74.4.3 79.2-6.9 4-5.9 2.2-14.4-3.9-18.1-3.2-1.9-4.8-2-74.8-2-69.2 0-71.6.1-74.7 2zm.8 63.8c-9.4 4.8-9.1 19.8.5 23.8 2.9 1.2 14.7 1.4 75.3 1.2l72-.3 3-2.9c6.5-6.2 5.4-17-2.2-21.6-3.1-1.9-5.5-2-74.2-2-65.6 0-71.3.1-74.4 1.8zm0 63c-8.8 4.7-9.3 18.1-.9 23.2 3.2 1.9 4.8 2 74.8 2 69.2 0 71.6-.1 74.7-2 6.2-3.7 8.2-12.4 4.3-18.8s-1.8-6.2-79.2-6.2c-66.2 0-70.5.1-73.7 1.8zm241.5-124.7c-6.1 5.3-5.8 15 .5 20.3l3.1 2.6h71.6c54.9 0 72.3-.3 74.1-1.3 8.6-4.4 9-17.7.7-22.8-3-1.8-6.4-1.9-74.8-1.9h-71.7l-3.5 3.1zm1.8 61.8c-8.4 5.1-8 19.3.7 23.8 1.8 1 19 1.3 73.3 1.3 69.4 0 70.9 0 74.1-2 6.4-4 8-13.5 3.3-19.5-4.4-5.6-2.9-5.5-78.5-5.5-66.5 0-69.9.1-72.9 1.9zm1.7 62.9c-10 5-10.6 19.7-1.1 24.4 3.2 1.6 7.4 1.8 43.5 1.8 22 0 41.8-.5 44-1 8.4-1.9 12.5-10.7 8.7-18.6-3.9-8-3.1-7.9-50.2-8.1-37.8-.3-41.8-.1-44.9 1.5z" /></svg>